# xmcd
#
# Track frame offsets:
#	187
#	6160
#	42335
#	78220
#	115032
#	152135
#	159535
#	201832
#	247082
#	282127
#	315492
#	323742
#
# Disc length: 4352 seconds
#
# Revision: 1
# Processed by: cddbd v1.5.1PL0 Copyright (c) Steve Scherf et al.
# Submitted via: CDex 1.50Beta5
#
DISCID=9510fe0c
DTITLE=関 智一 他 - MAZE☆爆熱時空 幻光流1
DYEAR=1900
DGENRE=Other
TTITLE0=001.オープニング
TTITLE1=女メイズ編
TTITLE2=ミルちゃん編
TTITLE3=アスター&ソリュード編
TTITLE4=男メイズ編
TTITLE5=006.話と話の間の実に現実的なある風景
TTITLE6=復活?女メイズ編
TTITLE7=お馴染みの!男メイズ編
TTITLE8=流浪のレイピア編
TTITLE9=沈黙のシック編
TTITLE10=011.エンディング
TTITLE11=012.次回予告
EXTD=
EXTT0=
EXTT1=
EXTT2=
EXTT3=
EXTT4=
EXTT5=
EXTT6=
EXTT7=
EXTT8=
EXTT9=
EXTT10=
EXTT11=
PLAYORDER=
